<?xml version="1.0" encoding="utf-8"?>
<!-- Generator: Adobe Illustrator 24.3.0, SVG Export Plug-In . SVG Version: 6.00 Build 0)  -->
<svg version="1.1" id="Layer_1" xmlns="http://www.w3.org/2000/svg" xmlns:xlink="http://www.w3.org/1999/xlink" x="0px" y="0px"
	 viewBox="0 0 100 100" style="enable-background:new 0 0 100 100;" xml:space="preserve">
<style>
	.st0 {fill: #00a0a0;}
</style>
<g>
	<path class="st0" d="M1,52.9C1,51,1,49,1,47.1c0.1-0.7,0.2-1.4,0.2-2.1c1.2-10.5,5.2-19.8,12.3-27.7C21.1,9,30.5,3.7,41.6,1.8
		c1.8-0.3,3.7-0.5,5.6-0.8c1.9,0,3.8,0,5.7,0c1.6,0.2,3.3,0.4,4.9,0.6C68,3.3,77,7.7,84.3,15.1c11,11,15.9,24.4,14.4,39.9
		c-0.9,10.4-5,19.6-12,27.4c-9.2,10.4-20.8,15.9-34.7,16.6c-9.7,0.5-18.8-1.8-27-6.8c-12.7-7.8-20.5-19-23.3-33.7
		C1.4,56.6,1.3,54.7,1,52.9z M50,8.6C27.2,8.6,8.7,27.1,8.6,49.9C8.6,72.7,27.1,91.3,49.9,91.4C72.7,91.5,91.4,72.9,91.4,50
		C91.4,27.2,72.9,8.7,50,8.6z"/>
	<path class="st0" d="M53.8,37.7c0,3.2,0,6.4,0,9.7c0,0.7,0.2,1.2,0.8,1.7c4.2,3.1,8.4,6.3,12.6,9.4c1.4,1.1,2.1,2.4,1.7,4.1
		c-0.6,2.7-3.7,3.8-6,2.1c-2.6-1.9-5.2-3.9-7.8-5.8c-2.3-1.8-4.7-3.5-7-5.3c-1.2-0.9-1.8-2-1.8-3.4c0-7.5,0-15,0-22.5
		c0-2,1.3-3.5,3.1-3.9c1.8-0.3,3.5,0.6,4.2,2.3c0.2,0.6,0.3,1.3,0.3,2C53.8,31.3,53.8,34.5,53.8,37.7z"/>
</g>
</svg>
